<?xml version="1.0" encoding="utf-8"?>
<!-- Generator: Adobe Illustrator 25.0.0, SVG Export Plug-In . SVG Version: 6.00 Build 0)  -->
<svg version="1.1" id="Layer_1" xmlns="http://www.w3.org/2000/svg" xmlns:xlink="http://www.w3.org/1999/xlink" x="0px" y="0px"
	 viewBox="0 0 1600 350" style="enable-background:new 0 0 1600 350;" xml:space="preserve">
<style type="text/css">
	.st0{display:none;fill:#6998AB;}
	.st1{fill:#1A374D;}
</style>
<g>
	<rect class="st0" width="1600" height="350"/>
	<path class="st1" d="M1493.9,350c-73.2,0-146.4,0-219.6,0c-4.3-3.3-8.4-7.1-14.1-7.2s-11.4,0.3-16.9,1.2c-9.5,1.6-18.9,4-28.6,4
		c-3.5,0-7,1.3-10.5,2c-20.2,0-40.4,0-60.6,0c-1.8-0.5-3.6-1.2-5.5-1.4c-9.3-1.3-18.7-2.5-28.1-3.8c-1.7-0.2-3.4-0.5-5-0.9
		c-5.7-1.4-11-4-17-4.2c-2.6-0.1-5.2-1.8-7.6-3c-3.2-1.7-6.4-3.1-10.2-2.8c-5.7,0.4-11.4,0.6-17.1,0.6c-2.3,0-4.5-1.1-6.8-1.8
		c-2.5-0.7-4.9-2.1-7.4-2.2c-7.6-0.3-15.1,0-22.7-0.1c-6-0.1-12-0.3-17.9-1c-6.9-0.8-13.8-2.7-20.7-3.1c-15-0.9-30-1-44.9-1.6
		c-8.8-0.4-17.7-1.6-26.5-1.8c-12.8-0.3-25.6-0.8-38-4.5c-1-0.3-2.2-0.4-3.3-0.1c-7.7,2-15.5,3.8-23,6.4c-6.5,2.2-12.7,4.8-18.8-0.6
		c-0.4-0.4-1.1-0.5-1.6-0.8c-3.6-2.3-7.5-4.1-10.8-6.9c-2.6-2.2-4.9-4.2-8.4-4.4c-1.6-0.1-3.2-1-4.7-1.7c-5.8-2.7-11.5-5.6-18.1-5.7
		c-1.8,0-3.8-0.5-5.5-1.3c-3.7-1.7-7.3-3.9-11-5.4c-3.5-1.5-7.2-3.5-10.7-3.4c-9.2,0.4-18.3,1.4-27.3,3.1c-8.2,1.5-16.1,5-24.3,6.4
		c-10,1.7-20.2,2-29.9-1.8c-6.5-2.6-13.1-2.5-19.8-1.5c-3.1,0.5-6,2-7.8,5c-2.7,4.5-6.7,7.6-11.7,9.3c-2.3,0.8-4.7,1.6-7.2,2.1
		c-8.3,1.5-16.2,1.1-23.3-4.6c-2.4-1.9-5.6-3-8.5-4c-2.4-0.9-5-1.3-7.6-1.6c-5.2-0.6-10.5-1-15.7-1.6c-4-0.5-8.3-0.5-11.9-2
		c-6.5-2.7-12.8-5.3-20.1-5c-2,0.1-4.1-0.9-6.1-1.4c-3.7-1-7.3-2.7-11-3c-13.1-1-26.3-1.5-39.4-2.1c-3.5-0.2-7,0-10.5-0.2
		c-1.9-0.1-4-0.5-5.7-1.5c-7-4-14.1-7.9-18.2-15.5c-1.7-3.1-5.5-4.6-8.1-3.7c-2.5,0.9-4.9,1.8-7.2,3c-6.2,3.5-12.4,7.1-18.5,10.8
		c-7.1,4.3-14.2,5-21.4,0.1c-0.9-0.6-2-1.1-3-1.3c-5.4-1.2-10.6-1.7-16.1,0.5c-7.4,3-15.5,4.6-21.6,10.5c-2.1,2.1-4.9,2.5-7.8,2.2
		c-3.8-0.4-7.5-0.9-11.3-1.1c-5.3-0.2-10.4-0.7-14.1-5.3c-0.5-0.6-1.3-0.9-2-1.3c-3.8-2.1-7.7-4.1-11.4-6.5
		c-5.9-3.7-11.3-3.1-17.1,0.4c-3.3,2-6.9,3.6-10.4,5c-3.3,1.4-6.7,2.4-10.1,3.5c-4.1,1.2-8.2,3.1-12.3,3.2
		c-21.3,0.3-42.6-0.2-63.9,0.2c-11.3,0.2-21.6-3.5-32.3-5.5c-0.5-0.1-0.9-0.4-1.4-0.6c-11.6-5.7-23.3-11.3-34.9-17.3
		c-4.7-2.4-9-5.4-13.3-8.5c-5.1-3.6-9.9-7.7-15-11.3c-3.1-2.3-6.6-4.1-9.8-6.3c-8.2-5.7-16.4-11.3-25.8-14.9
		c-4-1.5-8.1-3.2-11.5-5.7c-6.9-5-14.6-8.2-22.5-11c-2.7-1-5.6-2-7.8-3.8C7.7,203.1,2.6,194.5,1,184c-0.1-0.9-0.7-1.7-1.1-2.6
		C0.1,121.1,0.1,60.5,0.1,0c533.3,0,1066.7,0,1600,0c0,116.7,0,233.3,0,350c-27.8,0-55.6,0-83.4,0c-3.4-2.6-6.8-5.6-11.6-4
		C1501.4,347.2,1497.7,348.6,1493.9,350z"/>
</g>
</svg>
