<svg xmlns="http://www.w3.org/2000/svg" version="1.1" xmlns:xlink="http://www.w3.org/1999/xlink" xmlns:svgjs="http://svgjs.com/svgjs" width="1440" height="560" preserveAspectRatio="none" viewBox="0 0 1440 560"><g mask="url(&quot;#SvgjsMask1000&quot;)" fill="none"><rect width="1440" height="560" x="0" y="0" fill="#0e2a47"></rect><path d="M-97.31 360.95L-97.31 360.95" stroke="#132e65" stroke-width="1.5"></path><path d="M-97.31 360.95L86.65 400.14" stroke="#132e65" stroke-width="1.5"></path><path d="M-97.31 360.95L-38.7 558.1" stroke="#132e65" stroke-width="1.5"></path><path d="M-38.7 558.1L-38.7 558.1" stroke="#132e65" stroke-width="1.5"></path><path d="M-38.7 558.1L83.88 555.15" stroke="#132e65" stroke-width="1.5"></path><path d="M-38.7 558.1L-98.45 696.93" stroke="#132e65" stroke-width="1.5"></path><path d="M-38.7 558.1L86.65 400.14" stroke="#132e65" stroke-width="1.5"></path><path d="M-98.45 696.93L-98.45 696.93" stroke="#132e65" stroke-width="1.5"></path><path d="M-98.45 696.93L83.88 555.15" stroke="#132e65" stroke-width="1.5"></path><path d="M-98.45 696.93L199.9 666.27" stroke="#132e65" stroke-width="1.5"></path><path d="M-98.45 696.93L-97.31 360.95" stroke="#132e65" stroke-width="1.5"></path><path d="M86.65 400.14L86.65 400.14" stroke="#132e65" stroke-width="1.5"></path><path d="M86.65 400.14L220.64 398.16" stroke="#132e65" stroke-width="1.5"></path><path d="M86.65 400.14L83.88 555.15" stroke="#132e65" stroke-width="1.5"></path><path d="M86.65 400.14L340.65 405.18" stroke="#132e65" stroke-width="1.5"></path><path d="M83.88 555.15L83.88 555.15" stroke="#132e65" stroke-width="1.5"></path><path d="M83.88 555.15L199.9 666.27" stroke="#132e65" stroke-width="1.5"></path><path d="M220.64 398.16L220.64 398.16" stroke="#132e65" stroke-width="1.5"></path><path d="M220.64 398.16L340.65 405.18" stroke="#132e65" stroke-width="1.5"></path><path d="M199.9 666.27L199.9 666.27" stroke="#132e65" stroke-width="1.5"></path><path d="M199.9 666.27L354.96 683.96" stroke="#132e65" stroke-width="1.5"></path><path d="M199.9 666.27L377.53 555.72" stroke="#132e65" stroke-width="1.5"></path><path d="M340.65 405.18L340.65 405.18" stroke="#132e65" stroke-width="1.5"></path><path d="M340.65 405.18L377.53 555.72" stroke="#132e65" stroke-width="1.5"></path><path d="M340.65 405.18L533.93 518.69" stroke="#132e65" stroke-width="1.5"></path><path d="M340.65 405.18L354.96 683.96" stroke="#132e65" stroke-width="1.5"></path><path d="M377.53 555.72L377.53 555.72" stroke="#132e65" stroke-width="1.5"></path><path d="M377.53 555.72L354.96 683.96" stroke="#132e65" stroke-width="1.5"></path><path d="M354.96 683.96L354.96 683.96" stroke="#132e65" stroke-width="1.5"></path><path d="M533.93 518.69L533.93 518.69" stroke="#132e65" stroke-width="1.5"></path><path d="M533.93 518.69L639.69 514.72" stroke="#132e65" stroke-width="1.5"></path><path d="M507.65 649.97L507.65 649.97" stroke="#132e65" stroke-width="1.5"></path><path d="M507.65 649.97L533.93 518.69" stroke="#132e65" stroke-width="1.5"></path><path d="M507.65 649.97L354.96 683.96" stroke="#132e65" stroke-width="1.5"></path><path d="M507.65 649.97L377.53 555.72" stroke="#132e65" stroke-width="1.5"></path><path d="M700.07 256.51L700.07 256.51" stroke="#132e65" stroke-width="1.5"></path><path d="M700.07 256.51L799.82 256.1" stroke="#132e65" stroke-width="1.5"></path><path d="M700.07 256.51L687.07 358.63" stroke="#132e65" stroke-width="1.5"></path><path d="M700.07 256.51L827.19 366.82" stroke="#132e65" stroke-width="1.5"></path><path d="M700.07 256.51L639.69 514.72" stroke="#132e65" stroke-width="1.5"></path><path d="M687.07 358.63L687.07 358.63" stroke="#132e65" stroke-width="1.5"></path><path d="M687.07 358.63L827.19 366.82" stroke="#132e65" stroke-width="1.5"></path><path d="M687.07 358.63L799.82 256.1" stroke="#132e65" stroke-width="1.5"></path><path d="M639.69 514.72L639.69 514.72" stroke="#132e65" stroke-width="1.5"></path><path d="M639.69 514.72L687.07 358.63" stroke="#132e65" stroke-width="1.5"></path><path d="M639.69 514.72L820.56 500.37" stroke="#132e65" stroke-width="1.5"></path><path d="M657.93 711.36L657.93 711.36" stroke="#132e65" stroke-width="1.5"></path><path d="M657.93 711.36L507.65 649.97" stroke="#132e65" stroke-width="1.5"></path><path d="M657.93 711.36L818.57 653.35" stroke="#132e65" stroke-width="1.5"></path><path d="M657.93 711.36L639.69 514.72" stroke="#132e65" stroke-width="1.5"></path><path d="M657.93 711.36L533.93 518.69" stroke="#132e65" stroke-width="1.5"></path><path d="M657.93 711.36L820.56 500.37" stroke="#132e65" stroke-width="1.5"></path><path d="M799.82 256.1L799.82 256.1" stroke="#132e65" stroke-width="1.5"></path><path d="M799.82 256.1L827.19 366.82" stroke="#132e65" stroke-width="1.5"></path><path d="M827.19 366.82L827.19 366.82" stroke="#132e65" stroke-width="1.5"></path><path d="M827.19 366.82L820.56 500.37" stroke="#132e65" stroke-width="1.5"></path><path d="M827.19 366.82L986.59 408.77" stroke="#132e65" stroke-width="1.5"></path><path d="M820.56 500.37L820.56 500.37" stroke="#132e65" stroke-width="1.5"></path><path d="M820.56 500.37L957.56 510.08" stroke="#132e65" stroke-width="1.5"></path><path d="M820.56 500.37L818.57 653.35" stroke="#132e65" stroke-width="1.5"></path><path d="M818.57 653.35L818.57 653.35" stroke="#132e65" stroke-width="1.5"></path><path d="M818.57 653.35L1012.15 649.36" stroke="#132e65" stroke-width="1.5"></path><path d="M818.57 653.35L957.56 510.08" stroke="#132e65" stroke-width="1.5"></path><path d="M979.6 100.48L979.6 100.48" stroke="#132e65" stroke-width="1.5"></path><path d="M979.6 100.48L1119.31 80.04" stroke="#132e65" stroke-width="1.5"></path><path d="M979.6 100.48L1142.65 209.47" stroke="#132e65" stroke-width="1.5"></path><path d="M979.6 100.48L1136.51 -72.19" stroke="#132e65" stroke-width="1.5"></path><path d="M979.6 100.48L799.82 256.1" stroke="#132e65" stroke-width="1.5"></path><path d="M986.59 408.77L986.59 408.77" stroke="#132e65" stroke-width="1.5"></path><path d="M986.59 408.77L957.56 510.08" stroke="#132e65" stroke-width="1.5"></path><path d="M986.59 408.77L1155.09 391.36" stroke="#132e65" stroke-width="1.5"></path><path d="M986.59 408.77L820.56 500.37" stroke="#132e65" stroke-width="1.5"></path><path d="M957.56 510.08L957.56 510.08" stroke="#132e65" stroke-width="1.5"></path><path d="M957.56 510.08L1012.15 649.36" stroke="#132e65" stroke-width="1.5"></path><path d="M957.56 510.08L827.19 366.82" stroke="#132e65" stroke-width="1.5"></path><path d="M957.56 510.08L1151.92 515.52" stroke="#132e65" stroke-width="1.5"></path><path d="M1012.15 649.36L1012.15 649.36" stroke="#132e65" stroke-width="1.5"></path><path d="M1012.15 649.36L1154.64 639.02" stroke="#132e65" stroke-width="1.5"></path><path d="M1012.15 649.36L1151.92 515.52" stroke="#132e65" stroke-width="1.5"></path><path d="M1012.15 649.36L986.59 408.77" stroke="#132e65" stroke-width="1.5"></path><path d="M1136.51 -72.19L1136.51 -72.19" stroke="#132e65" stroke-width="1.5"></path><path d="M1136.51 -72.19L1269.19 -72.57" stroke="#132e65" stroke-width="1.5"></path><path d="M1136.51 -72.19L1119.31 80.04" stroke="#132e65" stroke-width="1.5"></path><path d="M1136.51 -72.19L1309.99 92.85" stroke="#132e65" stroke-width="1.5"></path><path d="M1119.31 80.04L1119.31 80.04" stroke="#132e65" stroke-width="1.5"></path><path d="M1119.31 80.04L1142.65 209.47" stroke="#132e65" stroke-width="1.5"></path><path d="M1142.65 209.47L1142.65 209.47" stroke="#132e65" stroke-width="1.5"></path><path d="M1142.65 209.47L1257.32 255.98" stroke="#132e65" stroke-width="1.5"></path><path d="M1142.65 209.47L1155.09 391.36" stroke="#132e65" stroke-width="1.5"></path><path d="M1155.09 391.36L1155.09 391.36" stroke="#132e65" stroke-width="1.5"></path><path d="M1155.09 391.36L1151.92 515.52" stroke="#132e65" stroke-width="1.5"></path><path d="M1151.92 515.52L1151.92 515.52" stroke="#132e65" stroke-width="1.5"></path><path d="M1151.92 515.52L1154.64 639.02" stroke="#132e65" stroke-width="1.5"></path><path d="M1151.92 515.52L1287.75 530.56" stroke="#132e65" stroke-width="1.5"></path><path d="M1151.92 515.52L1257.26 648.32" stroke="#132e65" stroke-width="1.5"></path><path d="M1154.64 639.02L1154.64 639.02" stroke="#132e65" stroke-width="1.5"></path><path d="M1154.64 639.02L1257.26 648.32" stroke="#132e65" stroke-width="1.5"></path><path d="M1269.19 -72.57L1269.19 -72.57" stroke="#132e65" stroke-width="1.5"></path><path d="M1269.19 -72.57L1432.56 -66.43" stroke="#132e65" stroke-width="1.5"></path><path d="M1309.99 92.85L1309.99 92.85" stroke="#132e65" stroke-width="1.5"></path><path d="M1309.99 92.85L1458.27 107.36" stroke="#132e65" stroke-width="1.5"></path><path d="M1309.99 92.85L1421.44 205.93" stroke="#132e65" stroke-width="1.5"></path><path d="M1309.99 92.85L1269.19 -72.57" stroke="#132e65" stroke-width="1.5"></path><path d="M1309.99 92.85L1257.32 255.98" stroke="#132e65" stroke-width="1.5"></path><path d="M1309.99 92.85L1119.31 80.04" stroke="#132e65" stroke-width="1.5"></path><path d="M1257.32 255.98L1257.32 255.98" stroke="#132e65" stroke-width="1.5"></path><path d="M1257.32 255.98L1155.09 391.36" stroke="#132e65" stroke-width="1.5"></path><path d="M1257.32 255.98L1421.44 205.93" stroke="#132e65" stroke-width="1.5"></path><path d="M1287.75 530.56L1287.75 530.56" stroke="#132e65" stroke-width="1.5"></path><path d="M1287.75 530.56L1257.26 648.32" stroke="#132e65" stroke-width="1.5"></path><path d="M1287.75 530.56L1420.34 512.98" stroke="#132e65" stroke-width="1.5"></path><path d="M1257.26 648.32L1257.26 648.32" stroke="#132e65" stroke-width="1.5"></path><path d="M1432.56 -66.43L1432.56 -66.43" stroke="#132e65" stroke-width="1.5"></path><path d="M1432.56 -66.43L1577.41 -104.8" stroke="#132e65" stroke-width="1.5"></path><path d="M1432.56 -66.43L1555.01 52.81" stroke="#132e65" stroke-width="1.5"></path><path d="M1458.27 107.36L1458.27 107.36" stroke="#132e65" stroke-width="1.5"></path><path d="M1458.27 107.36L1421.44 205.93" stroke="#132e65" stroke-width="1.5"></path><path d="M1458.27 107.36L1555.01 52.81" stroke="#132e65" stroke-width="1.5"></path><path d="M1421.44 205.93L1421.44 205.93" stroke="#132e65" stroke-width="1.5"></path><path d="M1421.44 205.93L1551.77 243.5" stroke="#132e65" stroke-width="1.5"></path><path d="M1421.44 205.93L1458.93 373.79" stroke="#132e65" stroke-width="1.5"></path><path d="M1458.93 373.79L1458.93 373.79" stroke="#132e65" stroke-width="1.5"></path><path d="M1458.93 373.79L1541.77 409.48" stroke="#132e65" stroke-width="1.5"></path><path d="M1458.93 373.79L1420.34 512.98" stroke="#132e65" stroke-width="1.5"></path><path d="M1458.93 373.79L1551.77 243.5" stroke="#132e65" stroke-width="1.5"></path><path d="M1420.34 512.98L1420.34 512.98" stroke="#132e65" stroke-width="1.5"></path><path d="M1420.34 512.98L1449.47 641.82" stroke="#132e65" stroke-width="1.5"></path><path d="M1420.34 512.98L1570.76 488.53" stroke="#132e65" stroke-width="1.5"></path><path d="M1449.47 641.82L1449.47 641.82" stroke="#132e65" stroke-width="1.5"></path><path d="M1449.47 641.82L1562.32 682.69" stroke="#132e65" stroke-width="1.5"></path><path d="M1449.47 641.82L1257.26 648.32" stroke="#132e65" stroke-width="1.5"></path><path d="M1449.47 641.82L1570.76 488.53" stroke="#132e65" stroke-width="1.5"></path><path d="M1577.41 -104.8L1577.41 -104.8" stroke="#132e65" stroke-width="1.5"></path><path d="M1577.41 -104.8L1555.01 52.81" stroke="#132e65" stroke-width="1.5"></path><path d="M1577.41 -104.8L1458.27 107.36" stroke="#132e65" stroke-width="1.5"></path><path d="M1577.41 -104.8L1269.19 -72.57" stroke="#132e65" stroke-width="1.5"></path><path d="M1577.41 -104.8L1309.99 92.85" stroke="#132e65" stroke-width="1.5"></path><path d="M1555.01 52.81L1555.01 52.81" stroke="#132e65" stroke-width="1.5"></path><path d="M1551.77 243.5L1551.77 243.5" stroke="#132e65" stroke-width="1.5"></path><path d="M1551.77 243.5L1458.27 107.36" stroke="#132e65" stroke-width="1.5"></path><path d="M1541.77 409.48L1541.77 409.48" stroke="#132e65" stroke-width="1.5"></path><path d="M1541.77 409.48L1570.76 488.53" stroke="#132e65" stroke-width="1.5"></path><path d="M1570.76 488.53L1570.76 488.53" stroke="#132e65" stroke-width="1.5"></path><path d="M1570.76 488.53L1458.93 373.79" stroke="#132e65" stroke-width="1.5"></path><path d="M1562.32 682.69L1562.32 682.69" stroke="#132e65" stroke-width="1.5"></path><path d="M1562.32 682.69L1570.76 488.53" stroke="#132e65" stroke-width="1.5"></path><path d="M1562.32 682.69L1420.34 512.98" stroke="#132e65" stroke-width="1.5"></path><path d="M1562.32 682.69L1541.77 409.48" stroke="#132e65" stroke-width="1.5"></path><circle r="5" cx="-97.31" cy="360.95" fill="#132e65"></circle><circle r="5" cx="-38.7" cy="558.1" fill="#132e65"></circle><circle r="5" cx="-98.45" cy="696.93" fill="#132e65"></circle><circle r="5" cx="86.65" cy="400.14" fill="#132e65"></circle><circle r="5" cx="83.88" cy="555.15" fill="#132e65"></circle><circle r="5" cx="220.64" cy="398.16" fill="#132e65"></circle><circle r="5" cx="199.9" cy="666.27" fill="#132e65"></circle><circle r="5" cx="340.65" cy="405.18" fill="#132e65"></circle><circle r="5" cx="377.53" cy="555.72" fill="#132e65"></circle><circle r="5" cx="354.96" cy="683.96" fill="#132e65"></circle><circle r="5" cx="533.93" cy="518.69" fill="#132e65"></circle><circle r="5" cx="507.65" cy="649.97" fill="#132e65"></circle><circle r="5" cx="700.07" cy="256.51" fill="#132e65"></circle><circle r="5" cx="687.07" cy="358.63" fill="#132e65"></circle><circle r="5" cx="639.69" cy="514.72" fill="#132e65"></circle><circle r="5" cx="657.93" cy="711.36" fill="#132e65"></circle><circle r="5" cx="799.82" cy="256.1" fill="#132e65"></circle><circle r="5" cx="827.19" cy="366.82" fill="#132e65"></circle><circle r="5" cx="820.56" cy="500.37" fill="#132e65"></circle><circle r="5" cx="818.57" cy="653.35" fill="#132e65"></circle><circle r="5" cx="979.6" cy="100.48" fill="#132e65"></circle><circle r="5" cx="986.59" cy="408.77" fill="#132e65"></circle><circle r="5" cx="957.56" cy="510.08" fill="#132e65"></circle><circle r="5" cx="1012.15" cy="649.36" fill="#132e65"></circle><circle r="5" cx="1136.51" cy="-72.19" fill="#132e65"></circle><circle r="5" cx="1119.31" cy="80.04" fill="#132e65"></circle><circle r="5" cx="1142.65" cy="209.47" fill="#132e65"></circle><circle r="5" cx="1155.09" cy="391.36" fill="#132e65"></circle><circle r="5" cx="1151.92" cy="515.52" fill="#132e65"></circle><circle r="5" cx="1154.64" cy="639.02" fill="#132e65"></circle><circle r="5" cx="1269.19" cy="-72.57" fill="#132e65"></circle><circle r="5" cx="1309.99" cy="92.85" fill="#132e65"></circle><circle r="5" cx="1257.32" cy="255.98" fill="#132e65"></circle><circle r="5" cx="1287.75" cy="530.56" fill="#132e65"></circle><circle r="5" cx="1257.26" cy="648.32" fill="#132e65"></circle><circle r="5" cx="1432.56" cy="-66.43" fill="#132e65"></circle><circle r="5" cx="1458.27" cy="107.36" fill="#132e65"></circle><circle r="5" cx="1421.44" cy="205.93" fill="#132e65"></circle><circle r="5" cx="1458.93" cy="373.79" fill="#132e65"></circle><circle r="5" cx="1420.34" cy="512.98" fill="#132e65"></circle><circle r="5" cx="1449.47" cy="641.82" fill="#132e65"></circle><circle r="5" cx="1577.41" cy="-104.8" fill="#132e65"></circle><circle r="5" cx="1555.01" cy="52.81" fill="#132e65"></circle><circle r="5" cx="1551.77" cy="243.5" fill="#132e65"></circle><circle r="5" cx="1541.77" cy="409.48" fill="#132e65"></circle><circle r="5" cx="1570.76" cy="488.53" fill="#132e65"></circle><circle r="5" cx="1562.32" cy="682.69" fill="#132e65"></circle><path d="M44.22 501.89L44.22 501.89" stroke="hsl(228.5, 77.2%, 51.5%)" stroke-width="1.5"></path><path d="M44.22 501.89L-75.07 558.67" stroke="hsl(228.5, 77.2%, 51.5%)" stroke-width="1.5"></path><path d="M44.22 501.89L78.5 676.47" stroke="hsl(228.5, 77.2%, 51.5%)" stroke-width="1.5"></path><path d="M44.22 501.89L-51.01 680.65" stroke="hsl(228.5, 77.2%, 51.5%)" stroke-width="1.5"></path><path d="M44.22 501.89L241.5 686.53" stroke="hsl(228.5, 77.2%, 51.5%)" stroke-width="1.5"></path><path d="M1148.51 495.98L1148.51 495.98" stroke="hsl(228.5, 77.2%, 51.5%)" stroke-width="1.5"></path><path d="M1148.51 495.98L1127.45 390.82" stroke="hsl(228.5, 77.2%, 51.5%)" stroke-width="1.5"></path><path d="M1148.51 495.98L1262.99 558.55" stroke="hsl(228.5, 77.2%, 51.5%)" stroke-width="1.5"></path><path d="M1148.51 495.98L1139.31 647.58" stroke="hsl(228.5, 77.2%, 51.5%)" stroke-width="1.5"></path><path d="M1148.51 495.98L1274.04 666.96" stroke="hsl(228.5, 77.2%, 51.5%)" stroke-width="1.5"></path><path d="M1148.51 495.98L1009.17 665.54" stroke="hsl(228.5, 77.2%, 51.5%)" stroke-width="1.5"></path><path d="M1148.51 495.98L1311.51 348.95" stroke="hsl(228.5, 77.2%, 51.5%)" stroke-width="1.5"></path><path d="M1257.36 235.93L1257.36 235.93" stroke="hsl(228.5, 77.2%, 51.5%)" stroke-width="1.5"></path><path d="M1257.36 235.93L1311.51 348.95" stroke="hsl(228.5, 77.2%, 51.5%)" stroke-width="1.5"></path><path d="M1257.36 235.93L1410.86 194.31" stroke="hsl(228.5, 77.2%, 51.5%)" stroke-width="1.5"></path><path d="M1257.36 235.93L1127.45 390.82" stroke="hsl(228.5, 77.2%, 51.5%)" stroke-width="1.5"></path><path d="M1257.36 235.93L1446.04 390.14" stroke="hsl(228.5, 77.2%, 51.5%)" stroke-width="1.5"></path><path d="M1584.77 357.75L1584.77 357.75" stroke="hsl(228.5, 77.2%, 51.5%)" stroke-width="1.5"></path><path d="M1584.77 357.75L1583.62 236.99" stroke="hsl(228.5, 77.2%, 51.5%)" stroke-width="1.5"></path><path d="M1584.77 357.75L1446.04 390.14" stroke="hsl(228.5, 77.2%, 51.5%)" stroke-width="1.5"></path><path d="M1584.77 357.75L1548.89 552.31" stroke="hsl(228.5, 77.2%, 51.5%)" stroke-width="1.5"></path><path d="M1584.77 357.75L1401.91 493.73" stroke="hsl(228.5, 77.2%, 51.5%)" stroke-width="1.5"></path><path d="M1547.05 682.9L1547.05 682.9" stroke="hsl(228.5, 77.2%, 51.5%)" stroke-width="1.5"></path><path d="M1547.05 682.9L1444.18 701.88" stroke="hsl(228.5, 77.2%, 51.5%)" stroke-width="1.5"></path><path d="M1547.05 682.9L1548.89 552.31" stroke="hsl(228.5, 77.2%, 51.5%)" stroke-width="1.5"></path><path d="M1547.05 682.9L1401.91 493.73" stroke="hsl(228.5, 77.2%, 51.5%)" stroke-width="1.5"></path><path d="M1547.05 682.9L1274.04 666.96" stroke="hsl(228.5, 77.2%, 51.5%)" stroke-width="1.5"></path><path d="M1547.05 682.9L1446.04 390.14" stroke="hsl(228.5, 77.2%, 51.5%)" stroke-width="1.5"></path><path d="M-75.07 558.67L-75.07 558.67" stroke="hsl(228.5, 77.2%, 51.5%)" stroke-width="1.5"></path><path d="M-75.07 558.67L-51.01 680.65" stroke="hsl(228.5, 77.2%, 51.5%)" stroke-width="1.5"></path><path d="M-75.07 558.67L78.5 676.47" stroke="hsl(228.5, 77.2%, 51.5%)" stroke-width="1.5"></path><path d="M-75.07 558.67L241.5 686.53" stroke="hsl(228.5, 77.2%, 51.5%)" stroke-width="1.5"></path><path d="M-51.01 680.65L-51.01 680.65" stroke="hsl(228.5, 77.2%, 51.5%)" stroke-width="1.5"></path><path d="M-51.01 680.65L78.5 676.47" stroke="hsl(228.5, 77.2%, 51.5%)" stroke-width="1.5"></path><path d="M78.5 676.47L78.5 676.47" stroke="hsl(228.5, 77.2%, 51.5%)" stroke-width="1.5"></path><path d="M78.5 676.47L241.5 686.53" stroke="hsl(228.5, 77.2%, 51.5%)" stroke-width="1.5"></path><path d="M241.5 686.53L241.5 686.53" stroke="hsl(228.5, 77.2%, 51.5%)" stroke-width="1.5"></path><path d="M241.5 686.53L338.83 640.16" stroke="hsl(228.5, 77.2%, 51.5%)" stroke-width="1.5"></path><path d="M241.5 686.53L378.24 520.51" stroke="hsl(228.5, 77.2%, 51.5%)" stroke-width="1.5"></path><path d="M378.24 520.51L378.24 520.51" stroke="hsl(228.5, 77.2%, 51.5%)" stroke-width="1.5"></path><path d="M378.24 520.51L338.83 640.16" stroke="hsl(228.5, 77.2%, 51.5%)" stroke-width="1.5"></path><path d="M378.24 520.51L545.14 529.82" stroke="hsl(228.5, 77.2%, 51.5%)" stroke-width="1.5"></path><path d="M338.83 640.16L338.83 640.16" stroke="hsl(228.5, 77.2%, 51.5%)" stroke-width="1.5"></path><path d="M338.83 640.16L490.12 712.21" stroke="hsl(228.5, 77.2%, 51.5%)" stroke-width="1.5"></path><path d="M545.14 529.82L545.14 529.82" stroke="hsl(228.5, 77.2%, 51.5%)" stroke-width="1.5"></path><path d="M545.14 529.82L689.11 494.81" stroke="hsl(228.5, 77.2%, 51.5%)" stroke-width="1.5"></path><path d="M545.14 529.82L683.26 652.41" stroke="hsl(228.5, 77.2%, 51.5%)" stroke-width="1.5"></path><path d="M545.14 529.82L490.12 712.21" stroke="hsl(228.5, 77.2%, 51.5%)" stroke-width="1.5"></path><path d="M490.12 712.21L490.12 712.21" stroke="hsl(228.5, 77.2%, 51.5%)" stroke-width="1.5"></path><path d="M490.12 712.21L683.26 652.41" stroke="hsl(228.5, 77.2%, 51.5%)" stroke-width="1.5"></path><path d="M490.12 712.21L378.24 520.51" stroke="hsl(228.5, 77.2%, 51.5%)" stroke-width="1.5"></path><path d="M490.12 712.21L241.5 686.53" stroke="hsl(228.5, 77.2%, 51.5%)" stroke-width="1.5"></path><path d="M689.11 494.81L689.11 494.81" stroke="hsl(228.5, 77.2%, 51.5%)" stroke-width="1.5"></path><path d="M689.11 494.81L826.98 556.02" stroke="hsl(228.5, 77.2%, 51.5%)" stroke-width="1.5"></path><path d="M689.11 494.81L683.26 652.41" stroke="hsl(228.5, 77.2%, 51.5%)" stroke-width="1.5"></path><path d="M689.11 494.81L824.94 343.66" stroke="hsl(228.5, 77.2%, 51.5%)" stroke-width="1.5"></path><path d="M689.11 494.81L803.06 684.87" stroke="hsl(228.5, 77.2%, 51.5%)" stroke-width="1.5"></path><path d="M689.11 494.81L945.39 407.63" stroke="hsl(228.5, 77.2%, 51.5%)" stroke-width="1.5"></path><path d="M683.26 652.41L683.26 652.41" stroke="hsl(228.5, 77.2%, 51.5%)" stroke-width="1.5"></path><path d="M683.26 652.41L803.06 684.87" stroke="hsl(228.5, 77.2%, 51.5%)" stroke-width="1.5"></path><path d="M683.26 652.41L826.98 556.02" stroke="hsl(228.5, 77.2%, 51.5%)" stroke-width="1.5"></path><path d="M824.94 343.66L824.94 343.66" stroke="hsl(228.5, 77.2%, 51.5%)" stroke-width="1.5"></path><path d="M824.94 343.66L945.39 407.63" stroke="hsl(228.5, 77.2%, 51.5%)" stroke-width="1.5"></path><path d="M824.94 343.66L826.98 556.02" stroke="hsl(228.5, 77.2%, 51.5%)" stroke-width="1.5"></path><path d="M824.94 343.66L1127.45 390.82" stroke="hsl(228.5, 77.2%, 51.5%)" stroke-width="1.5"></path><path d="M824.94 343.66L545.14 529.82" stroke="hsl(228.5, 77.2%, 51.5%)" stroke-width="1.5"></path><path d="M826.98 556.02L826.98 556.02" stroke="hsl(228.5, 77.2%, 51.5%)" stroke-width="1.5"></path><path d="M826.98 556.02L803.06 684.87" stroke="hsl(228.5, 77.2%, 51.5%)" stroke-width="1.5"></path><path d="M803.06 684.87L803.06 684.87" stroke="hsl(228.5, 77.2%, 51.5%)" stroke-width="1.5"></path><path d="M803.06 684.87L1009.17 665.54" stroke="hsl(228.5, 77.2%, 51.5%)" stroke-width="1.5"></path><path d="M945.39 407.63L945.39 407.63" stroke="hsl(228.5, 77.2%, 51.5%)" stroke-width="1.5"></path><path d="M945.39 407.63L1127.45 390.82" stroke="hsl(228.5, 77.2%, 51.5%)" stroke-width="1.5"></path><path d="M945.39 407.63L826.98 556.02" stroke="hsl(228.5, 77.2%, 51.5%)" stroke-width="1.5"></path><path d="M945.39 407.63L1148.51 495.98" stroke="hsl(228.5, 77.2%, 51.5%)" stroke-width="1.5"></path><path d="M945.39 407.63L1009.17 665.54" stroke="hsl(228.5, 77.2%, 51.5%)" stroke-width="1.5"></path><path d="M1009.17 665.54L1009.17 665.54" stroke="hsl(228.5, 77.2%, 51.5%)" stroke-width="1.5"></path><path d="M1009.17 665.54L1139.31 647.58" stroke="hsl(228.5, 77.2%, 51.5%)" stroke-width="1.5"></path><path d="M1127.45 390.82L1127.45 390.82" stroke="hsl(228.5, 77.2%, 51.5%)" stroke-width="1.5"></path><path d="M1127.45 390.82L1311.51 348.95" stroke="hsl(228.5, 77.2%, 51.5%)" stroke-width="1.5"></path><path d="M1127.45 390.82L1262.99 558.55" stroke="hsl(228.5, 77.2%, 51.5%)" stroke-width="1.5"></path><path d="M1139.31 647.58L1139.31 647.58" stroke="hsl(228.5, 77.2%, 51.5%)" stroke-width="1.5"></path><path d="M1139.31 647.58L1274.04 666.96" stroke="hsl(228.5, 77.2%, 51.5%)" stroke-width="1.5"></path><path d="M1139.31 647.58L1262.99 558.55" stroke="hsl(228.5, 77.2%, 51.5%)" stroke-width="1.5"></path><path d="M1139.31 647.58L1127.45 390.82" stroke="hsl(228.5, 77.2%, 51.5%)" stroke-width="1.5"></path><path d="M1240.49 -44.7L1240.49 -44.7" stroke="hsl(228.5, 77.2%, 51.5%)" stroke-width="1.5"></path><path d="M1240.49 -44.7L1450.24 -68.86" stroke="hsl(228.5, 77.2%, 51.5%)" stroke-width="1.5"></path><path d="M1240.49 -44.7L1447.14 67.24" stroke="hsl(228.5, 77.2%, 51.5%)" stroke-width="1.5"></path><path d="M1311.51 348.95L1311.51 348.95" stroke="hsl(228.5, 77.2%, 51.5%)" stroke-width="1.5"></path><path d="M1311.51 348.95L1446.04 390.14" stroke="hsl(228.5, 77.2%, 51.5%)" stroke-width="1.5"></path><path d="M1311.51 348.95L1401.91 493.73" stroke="hsl(228.5, 77.2%, 51.5%)" stroke-width="1.5"></path><path d="M1311.51 348.95L1410.86 194.31" stroke="hsl(228.5, 77.2%, 51.5%)" stroke-width="1.5"></path><path d="M1311.51 348.95L1262.99 558.55" stroke="hsl(228.5, 77.2%, 51.5%)" stroke-width="1.5"></path><path d="M1262.99 558.55L1262.99 558.55" stroke="hsl(228.5, 77.2%, 51.5%)" stroke-width="1.5"></path><path d="M1262.99 558.55L1274.04 666.96" stroke="hsl(228.5, 77.2%, 51.5%)" stroke-width="1.5"></path><path d="M1262.99 558.55L1401.91 493.73" stroke="hsl(228.5, 77.2%, 51.5%)" stroke-width="1.5"></path><path d="M1274.04 666.96L1274.04 666.96" stroke="hsl(228.5, 77.2%, 51.5%)" stroke-width="1.5"></path><path d="M1450.24 -68.86L1450.24 -68.86" stroke="hsl(228.5, 77.2%, 51.5%)" stroke-width="1.5"></path><path d="M1450.24 -68.86L1576.67 -65.63" stroke="hsl(228.5, 77.2%, 51.5%)" stroke-width="1.5"></path><path d="M1450.24 -68.86L1447.14 67.24" stroke="hsl(228.5, 77.2%, 51.5%)" stroke-width="1.5"></path><path d="M1450.24 -68.86L1578.61 43" stroke="hsl(228.5, 77.2%, 51.5%)" stroke-width="1.5"></path><path d="M1450.24 -68.86L1410.86 194.31" stroke="hsl(228.5, 77.2%, 51.5%)" stroke-width="1.5"></path><path d="M1450.24 -68.86L1583.62 236.99" stroke="hsl(228.5, 77.2%, 51.5%)" stroke-width="1.5"></path><path d="M1447.14 67.24L1447.14 67.24" stroke="hsl(228.5, 77.2%, 51.5%)" stroke-width="1.5"></path><path d="M1447.14 67.24L1410.86 194.31" stroke="hsl(228.5, 77.2%, 51.5%)" stroke-width="1.5"></path><path d="M1447.14 67.24L1578.61 43" stroke="hsl(228.5, 77.2%, 51.5%)" stroke-width="1.5"></path><path d="M1447.14 67.24L1576.67 -65.63" stroke="hsl(228.5, 77.2%, 51.5%)" stroke-width="1.5"></path><path d="M1410.86 194.31L1410.86 194.31" stroke="hsl(228.5, 77.2%, 51.5%)" stroke-width="1.5"></path><path d="M1410.86 194.31L1583.62 236.99" stroke="hsl(228.5, 77.2%, 51.5%)" stroke-width="1.5"></path><path d="M1446.04 390.14L1446.04 390.14" stroke="hsl(228.5, 77.2%, 51.5%)" stroke-width="1.5"></path><path d="M1446.04 390.14L1401.91 493.73" stroke="hsl(228.5, 77.2%, 51.5%)" stroke-width="1.5"></path><path d="M1446.04 390.14L1548.89 552.31" stroke="hsl(228.5, 77.2%, 51.5%)" stroke-width="1.5"></path><path d="M1446.04 390.14L1410.86 194.31" stroke="hsl(228.5, 77.2%, 51.5%)" stroke-width="1.5"></path><path d="M1401.91 493.73L1401.91 493.73" stroke="hsl(228.5, 77.2%, 51.5%)" stroke-width="1.5"></path><path d="M1401.91 493.73L1548.89 552.31" stroke="hsl(228.5, 77.2%, 51.5%)" stroke-width="1.5"></path><path d="M1401.91 493.73L1444.18 701.88" stroke="hsl(228.5, 77.2%, 51.5%)" stroke-width="1.5"></path><path d="M1401.91 493.73L1274.04 666.96" stroke="hsl(228.5, 77.2%, 51.5%)" stroke-width="1.5"></path><path d="M1444.18 701.88L1444.18 701.88" stroke="hsl(228.5, 77.2%, 51.5%)" stroke-width="1.5"></path><path d="M1576.67 -65.63L1576.67 -65.63" stroke="hsl(228.5, 77.2%, 51.5%)" stroke-width="1.5"></path><path d="M1576.67 -65.63L1578.61 43" stroke="hsl(228.5, 77.2%, 51.5%)" stroke-width="1.5"></path><path d="M1576.67 -65.63L1583.62 236.99" stroke="hsl(228.5, 77.2%, 51.5%)" stroke-width="1.5"></path><path d="M1578.61 43L1578.61 43" stroke="hsl(228.5, 77.2%, 51.5%)" stroke-width="1.5"></path><path d="M1578.61 43L1583.62 236.99" stroke="hsl(228.5, 77.2%, 51.5%)" stroke-width="1.5"></path><path d="M1578.61 43L1410.86 194.31" stroke="hsl(228.5, 77.2%, 51.5%)" stroke-width="1.5"></path><path d="M1583.62 236.99L1583.62 236.99" stroke="hsl(228.5, 77.2%, 51.5%)" stroke-width="1.5"></path><path d="M1583.62 236.99L1446.04 390.14" stroke="hsl(228.5, 77.2%, 51.5%)" stroke-width="1.5"></path><path d="M1583.62 236.99L1447.14 67.24" stroke="hsl(228.5, 77.2%, 51.5%)" stroke-width="1.5"></path><path d="M1548.89 552.31L1548.89 552.31" stroke="hsl(228.5, 77.2%, 51.5%)" stroke-width="1.5"></path><path d="M1548.89 552.31L1444.18 701.88" stroke="hsl(228.5, 77.2%, 51.5%)" stroke-width="1.5"></path><circle r="25" cx="44.22" cy="501.89" fill="url(#SvgjsRadialGradient1001)"></circle><circle r="25" cx="1148.51" cy="495.98" fill="url(#SvgjsRadialGradient1001)"></circle><circle r="25" cx="1257.36" cy="235.93" fill="url(#SvgjsRadialGradient1001)"></circle><circle r="25" cx="1584.77" cy="357.75" fill="url(#SvgjsRadialGradient1001)"></circle><circle r="25" cx="1547.05" cy="682.9" fill="url(#SvgjsRadialGradient1001)"></circle><circle r="5" cx="-75.07" cy="558.67" fill="#8b9ad9"></circle><circle r="5" cx="-51.01" cy="680.65" fill="#8b9ad9"></circle><circle r="5" cx="78.5" cy="676.47" fill="#8b9ad9"></circle><circle r="5" cx="241.5" cy="686.53" fill="#8b9ad9"></circle><circle r="5" cx="378.24" cy="520.51" fill="#8b9ad9"></circle><circle r="5" cx="338.83" cy="640.16" fill="#8b9ad9"></circle><circle r="5" cx="545.14" cy="529.82" fill="#8b9ad9"></circle><circle r="5" cx="490.12" cy="712.21" fill="#8b9ad9"></circle><circle r="5" cx="689.11" cy="494.81" fill="#8b9ad9"></circle><circle r="5" cx="683.26" cy="652.41" fill="#8b9ad9"></circle><circle r="5" cx="824.94" cy="343.66" fill="#8b9ad9"></circle><circle r="5" cx="826.98" cy="556.02" fill="#8b9ad9"></circle><circle r="5" cx="803.06" cy="684.87" fill="#8b9ad9"></circle><circle r="5" cx="945.39" cy="407.63" fill="#8b9ad9"></circle><circle r="5" cx="1009.17" cy="665.54" fill="#8b9ad9"></circle><circle r="5" cx="1127.45" cy="390.82" fill="#8b9ad9"></circle><circle r="5" cx="1139.31" cy="647.58" fill="#8b9ad9"></circle><circle r="5" cx="1240.49" cy="-44.7" fill="#8b9ad9"></circle><circle r="5" cx="1311.51" cy="348.95" fill="#8b9ad9"></circle><circle r="5" cx="1262.99" cy="558.55" fill="#8b9ad9"></circle><circle r="5" cx="1274.04" cy="666.96" fill="#8b9ad9"></circle><circle r="5" cx="1450.24" cy="-68.86" fill="#8b9ad9"></circle><circle r="5" cx="1447.14" cy="67.24" fill="#8b9ad9"></circle><circle r="5" cx="1410.86" cy="194.31" fill="#8b9ad9"></circle><circle r="5" cx="1446.04" cy="390.14" fill="#8b9ad9"></circle><circle r="5" cx="1401.91" cy="493.73" fill="#8b9ad9"></circle><circle r="5" cx="1444.18" cy="701.88" fill="#8b9ad9"></circle><circle r="5" cx="1576.67" cy="-65.63" fill="#8b9ad9"></circle><circle r="5" cx="1578.61" cy="43" fill="#8b9ad9"></circle><circle r="5" cx="1583.62" cy="236.99" fill="#8b9ad9"></circle><circle r="5" cx="1548.89" cy="552.31" fill="#8b9ad9"></circle></g><defs><mask id="SvgjsMask1000"><rect width="1440" height="560" fill="#ffffff"></rect></mask><radialGradient id="SvgjsRadialGradient1001"><stop stop-color="#ffffff" offset="0.1"></stop><stop stop-color="#1735b3" offset="0.2"></stop><stop stop-color="rgba(23, 53, 179, 0)" offset="1"></stop></radialGradient></defs></svg>